# xmcd
#
# Track frame offsets:
#	150
#	11456
#	28883
#	43447
#	65705
#	86621
#	102700
#	107741
#	112703
#	128547
#	132843
#	151375
#	167223
#	184808
#	208277
#	223572
#
# Disc length: 3187 seconds
#
# Revision: 2
# Processed by: cddbd v1.5.1PL0 Copyright (c) Steve Scherf et al.
# Submitted via: audiograbber 1.83.01
#
DISCID=e80c7110
DTITLE=India.Arie - Voyage To India
DYEAR=1900
DGENRE=R&B
TTITLE0=Groth
TTITLE1=Little Things
TTITLE2=Talk To Her
TTITLE3=Slow Down
TTITLE4=Truth
TTITLE5=Beautiful Surprise
TTITLE6=Healing
TTITLE7=Get It Together
TTITLE8=Headed In The Right Direction
TTITLE9=Can I Walk With You
TTITLE10=One
TTITLE11=Complicated Melody
TTITLE12=Gratitude
TTITLE13=Good Man
TTITLE14=God Is Real
TTITLE15=Interested
EXTD=
EXTT0=
EXTT1=
EXTT2=
EXTT3=
EXTT4=
EXTT5=
EXTT6=
EXTT7=
EXTT8=
EXTT9=
EXTT10=
EXTT11=
EXTT12=
EXTT13=
EXTT14=
EXTT15=
PLAYORDER=
